<svg viewBox="0 0 32 32" fill="none" xmlns="http://www.w3.org/2000/svg">
<path d="M17.3466 3.89326L25.2133 7.38659C27.4799 8.38659 27.4799 10.0399 25.2133 11.0399L17.3466 14.5333C16.4533 14.9333 14.9866 14.9333 14.0933 14.5333L6.22661 11.0399C3.95994 10.0399 3.95994 8.38659 6.22661 7.38659L14.0933 3.89326C14.9866 3.49326 16.4533 3.49326 17.3466 3.89326Z" stroke="currentColor" stroke-width="1.5" stroke-linecap="round" stroke-linejoin="round"/>
<path d="M4 14.6667C4 15.7867 4.84 17.0801 5.86667 17.5334L14.92 21.5601C15.6133 21.8667 16.4 21.8667 17.08 21.5601L26.1333 17.5334C27.16 17.0801 28 15.7867 28 14.6667" stroke="currentColor" stroke-width="1.5" stroke-linecap="round" stroke-linejoin="round"/>
<path d="M4 21.3333C4 22.5733 4.73333 23.6933 5.86667 24.1999L14.92 28.2266C15.6133 28.5333 16.4 28.5333 17.08 28.2266L26.1333 24.1999C27.2667 23.6933 28 22.5733 28 21.3333" stroke="currentColor" stroke-width="1.5" stroke-linecap="round" stroke-linejoin="round"/>
</svg>
